<svg width="32" height="31" viewBox="0 0 32 31" fill="none" xmlns="http://www.w3.org/2000/svg">
<g clip-path="url(#clip0)">
<path d="M23.4974 15.0996C23.4974 13.9144 24.4233 12.954 25.5652 12.954H25.6111C26.7511 12.954 27.6762 13.9105 27.6789 15.0936C27.6885 18.9642 27.6824 19.344 27.6767 25.125C27.6735 28.3711 25.137 31 22.0092 31H15.2938C13.2389 31 11.3444 29.8452 10.3431 27.9827L4.35586 16.8391L4.98131 16.3365C6.27659 15.1832 8.22485 15.3251 9.35174 16.654L11.0274 18.6302L11.037 5.03525C11.0378 3.85062 11.9637 2.89075 13.105 2.89075H13.1055C14.2477 2.89075 15.1735 3.85192 15.1735 5.03707V13.2647C15.2008 12.1047 16.1157 11.1746 17.2399 11.1746H17.2883C18.4304 11.1746 19.3563 12.1353 19.3563 13.3204V14.0113C19.3563 12.8259 20.2819 11.8655 21.4249 11.8655H21.4297C22.5715 11.8655 23.4974 12.8259 23.4974 14.0113V15.0996Z" fill="white"/>
<path d="M13.098 0C10.3995 0.00284829 8.21283 2.12146 8.20963 4.73567C8.20963 5.02853 8.45473 5.26597 8.75703 5.26597C9.05933 5.26597 9.30444 5.02853 9.30444 4.73567C9.30444 2.70588 11.003 1.0606 13.098 1.0606C15.1931 1.0606 16.8917 2.70588 16.8917 4.73567C16.8917 5.02853 17.1368 5.26597 17.4391 5.26597C17.7414 5.26597 17.9865 5.02853 17.9865 4.73567C17.9833 2.12146 15.7966 0.00284829 13.098 0Z" fill="white"/>
</g>
<defs>
<clipPath id="clip0">
<rect width="32" height="31" fill="white"/>
</clipPath>
</defs>
</svg>
